<?xml version="1.0" encoding="UTF-8" standalone="no"?>
<!-- Created with Inkscape (http://www.inkscape.org/) -->

<svg
   xmlns:dc="http://purl.org/dc/elements/1.1/"
   xmlns:cc="http://creativecommons.org/ns#"
   xmlns:rdf="http://www.w3.org/1999/02/22-rdf-syntax-ns#"
   xmlns:svg="http://www.w3.org/2000/svg"
   xmlns="http://www.w3.org/2000/svg"
   xmlns:sodipodi="http://sodipodi.sourceforge.net/DTD/sodipodi-0.dtd"
   xmlns:inkscape="http://www.inkscape.org/namespaces/inkscape"
   width="142.90486mm"
   height="9.1113272mm"
   viewBox="0 0 142.90486 9.1113272"
   version="1.1"
   id="svg4730"
   inkscape:version="0.92.4 (5da689c313, 2019-01-14)"
   sodipodi:docname="ornamento-2.svg">
  <defs
     id="defs4724" />
  <sodipodi:namedview
     id="base"
     pagecolor="#ffffff"
     bordercolor="#666666"
     borderopacity="1.0"
     inkscape:pageopacity="0.0"
     inkscape:pageshadow="2"
     inkscape:zoom="0.35"
     inkscape:cx="147.19936"
     inkscape:cy="694.36103"
     inkscape:document-units="mm"
     inkscape:current-layer="layer1"
     showgrid="false"
     inkscape:window-width="1920"
     inkscape:window-height="1017"
     inkscape:window-x="-8"
     inkscape:window-y="-8"
     inkscape:window-maximized="1" />
  <metadata
     id="metadata4727">
    <rdf:RDF>
      <cc:Work
         rdf:about="">
        <dc:format>image/svg+xml</dc:format>
        <dc:type
           rdf:resource="http://purl.org/dc/dcmitype/StillImage" />
        <dc:title></dc:title>
      </cc:Work>
    </rdf:RDF>
  </metadata>
  <g
     inkscape:label="Capa 1"
     inkscape:groupmode="layer"
     id="layer1"
     transform="translate(97.910783,-323.43836)">
    <path
       d="m 22.762306,329.93709 c -0.95109,0.16937 -2.01719,-0.23922 -3.25932,-1.24961 -0.0462,-0.0377 -0.0924,-0.0772 -0.13829,-0.11532 1.83162,-0.0466 3.67665,-0.0896 5.53226,-0.12622 -0.68968,0.86635 -1.38959,1.35819 -2.13465,1.49115 z m -8.11213,-1.76953 c -0.37147,0.01 -0.74048,0.0194 -1.1109,0.0296 0.10584,-0.44799 0.41169,-0.74041 0.66428,-0.9102 0.56092,-0.37786 1.35573,-0.50617 2.02565,-0.32812 0.73131,0.19488 1.37266,0.62936 1.97944,1.11414 -1.19204,0.031 -2.37984,0.0625 -3.55847,0.0945 z m 11.24338,-0.50906 c 0.39511,-0.58565 0.80328,-1.19101 1.32256,-1.66726 1.67394,-1.53459 4.54625,-1.46791 6.14716,0.14262 0.4826,0.48574 0.83855,1.06285 1.20685,1.6739 -2.96298,0.003 -5.91538,0.0387 -8.8452,0.0938 0.0554,-0.0818 0.11324,-0.16122 0.16863,-0.2431 z m -52.351866,4.22342 c -1.36384,-1.52121 -3.293181,-2.72478 -5.525206,-3.45405 2.232025,-0.72912 4.161366,-1.93325 5.525206,-3.45404 1.363837,1.52079 3.293534,2.72492 5.525204,3.45404 -2.23167,0.72927 -4.161367,1.93284 -5.525204,3.45405 z m -44.666958,-3.80891 c 0.606777,-0.48478 1.247775,-0.91926 1.979435,-1.11414 0.669573,-0.17776 1.465088,-0.0497 2.026005,0.32812 0.252235,0.16979 0.558093,0.46221 0.664278,0.9102 -0.370768,-0.0102 -0.739775,-0.0197 -1.11125,-0.0296 -1.178628,-0.0321 -2.366433,-0.0635 -3.558468,-0.0945 z m -1.294342,0.61447 c -1.241777,1.01039 -2.307872,1.41898 -3.259666,1.24961 -0.744714,-0.13296 -1.444978,-0.6248 -2.134306,-1.49115 1.855611,0.0367 3.700639,0.0796 5.532261,0.12622 -0.04586,0.0382 -0.09207,0.0776 -0.138289,0.11532 z m -13.860286,-2.55362 c 1.600906,-1.61011 4.473223,-1.67721 6.147153,-0.14262 0.519642,0.47625 0.927806,1.08161 1.322564,1.66726 0.05503,0.0819 0.113242,0.16125 0.168981,0.2431 -2.930173,-0.0551 -5.88257,-0.0911 -8.84555,-0.0938 0.367947,-0.61105 0.7239,-1.18816 1.206852,-1.6739 z m 130.667122,-1.0524 c -0.95814,-1.46929 -2.97145,-2.06417 -4.48769,-1.32571 -1.14229,0.55591 -1.84855,1.8087 -1.67957,2.97808 0.0907,0.62689 0.45438,1.21532 0.99836,1.61396 0.50094,0.36728 1.08268,0.51926 1.63865,0.42831 0.61172,-0.0999 1.17616,-0.54543 1.47391,-1.16237 0.2801,-0.58113 0.28081,-1.20054 0.002,-1.69968 -0.0476,-0.085 -0.15487,-0.11532 -0.24025,-0.0678 -0.085,0.0473 -0.11535,0.1549 -0.0677,0.23992 0.2219,0.39716 0.21766,0.89821 -0.012,1.37446 -0.24836,0.51498 -0.71332,0.8854 -1.21285,0.96767 -0.46108,0.0751 -0.94933,-0.054 -1.37337,-0.36478 -0.46108,-0.33803 -0.78175,-0.85411 -0.85795,-1.3801 -0.14746,-1.02196 0.47731,-2.11984 1.48519,-2.61055 1.33915,-0.65197 3.18806,-0.10199 4.0379,1.20121 0.82197,1.26051 0.71543,3.08708 -0.25365,4.34442 -0.9204,1.1938 -2.54882,1.8518 -4.15114,1.67612 -1.4872,-0.16345 -2.96357,-1.03548 -3.94923,-2.33289 -0.29599,-0.38985 -0.55634,-0.82271 -0.80822,-1.24149 -0.38241,-0.6361 -0.77787,-1.29396 -1.31621,-1.83512 -1.72791,-1.73852 -4.82882,-1.81049 -6.6354,-0.1542 -0.55033,0.50476 -0.97049,1.12776 -1.37689,1.73038 -0.10195,0.15063 -0.20743,0.29876 -0.31115,0.44802 -2.19639,0.0423 -4.37797,0.0943 -6.54085,0.14951 -0.73061,-0.60787 -1.49931,-1.19337 -2.42888,-1.44074 -0.76411,-0.20352 -1.67216,-0.0557 -2.31387,0.37578 -0.45861,0.30868 -0.74189,0.72707 -0.82903,1.21281 -11.2790056,0.30166 -22.0140326,0.55041 -33.224606,-0.0699 -2.559402,-0.69536 -4.762146,-2.01718 -6.208536,-3.73655 -0.100541,-0.11963 -0.304448,-0.11963 -0.404989,0 -1.446387,1.71937 -3.648779,3.04119 -6.208536,3.73655 -11.210925,0.61983 -21.9456,0.37151 -33.22461,0.0699 -0.08714,-0.48574 -0.370416,-0.90413 -0.829027,-1.21281 -0.641704,-0.43145 -1.5494,-0.5793 -2.313871,-0.37578 -0.92992,0.24737 -1.69827,0.83287 -2.428874,1.44074 -2.162881,-0.0552 -4.344458,-0.10721 -6.540853,-0.14951 -0.103716,-0.14926 -0.209197,-0.29739 -0.31115,-0.44802 -0.4064,-0.60262 -0.826558,-1.22562 -1.376891,-1.73038 -1.806575,-1.65601 -4.907139,-1.58432 -6.635397,0.1542 -0.537986,0.54141 -0.933803,1.19902 -1.316214,1.8354 -0.251883,0.41878 -0.51188,0.85136 -0.808214,1.24121 -1.000478,1.31685 -2.439811,2.16708 -3.949347,2.33289 -1.601974,0.17596 -3.230749,-0.48232 -4.151146,-1.67612 -0.968728,-1.25734 -1.07562,-3.08391 -0.253648,-4.34442 0.849842,-1.3032 2.699103,-1.85276 4.037895,-1.20121 1.008238,0.49071 1.632655,1.58859 1.484841,2.61055 -0.07585,0.52599 -0.396522,1.04207 -0.85725,1.37968 -0.424391,0.31115 -0.91193,0.4403 -1.373716,0.3652 -0.499886,-0.0823 -0.964495,-0.45269 -1.21285,-0.96767 -0.229659,-0.47625 -0.233892,-0.9773 -0.01164,-1.37446 0.04727,-0.085 0.01693,-0.19265 -0.06809,-0.23992 -0.08502,-0.0475 -0.192617,-0.0172 -0.240242,0.0678 -0.279047,0.49914 -0.278341,1.11855 0.0021,1.69968 0.297744,0.61694 0.862189,1.06246 1.473553,1.16237 0.555977,0.091 1.138413,-0.061 1.639358,-0.4287 0.54363,-0.39853 0.907697,-0.98668 0.998008,-1.61357 0.168981,-1.16938 -0.53728,-2.42217 -1.679575,-2.97808 -1.516591,-0.73875 -3.529894,-0.14358 -4.488038,1.32571 -0.900995,1.38186 -0.787753,3.38074 0.269875,4.75227 0.887588,1.1515 2.381602,1.84189 3.916891,1.8415 0.183797,0 0.3683,-0.01 0.552097,-0.0301 1.605492,-0.17596 3.133372,-1.07664 4.192059,-2.4704 0.203905,-0.26885 0.386291,-0.55287 0.563032,-0.83894 3.196873,4e-4 6.383162,0.0409 9.542639,0.10153 0.801159,1.08204 1.627364,1.68674 2.526595,1.84729 1.058686,0.18838 2.217561,-0.24462 3.544005,-1.32334 0.150636,-0.12277 0.300567,-0.24875 0.45085,-0.37497 1.396295,0.036 2.786591,0.0726 4.164895,0.10996 6.69925,0.17999 13.191771,0.35458 19.691702,0.35458 4.921954,0 9.851671,-0.10541 14.874521,-0.37952 0.0092,0.003 0.01728,0.01 0.02752,0.0123 2.610909,0.68611 4.85775,2.02572 6.326717,3.77197 0.0501,0.0599 0.12418,0.0941 0.202496,0.0941 0.07796,0 0.152046,-0.0342 0.202494,-0.0941 1.468966,-1.74625 3.715808,-3.08586 6.326716,-3.77197 0.0099,-0.002 0.01834,-0.009 0.02752,-0.0123 5.023554,0.27411 9.9518604,0.37952 14.8748754,0.37952 6.498871,0 12.992457,-0.17459 19.6909966,-0.35458 1.37866,-0.0373 2.76896,-0.074 4.16525,-0.10996 0.15028,0.12622 0.30021,0.2522 0.45085,0.37497 1.32644,1.07872 2.48567,1.51172 3.544,1.32334 0.89888,-0.16055 1.72579,-0.76525 2.52625,-1.84729 3.15983,-0.0606 6.34612,-0.10114 9.54299,-0.10153 0.17674,0.28607 0.35913,0.57034 0.56338,0.83894 1.05869,1.39376 2.58622,2.29444 4.19171,2.4704 0.1838,0.0205 0.3683,0.0301 0.5521,0.0301 1.53529,0 3.0293,-0.69 3.91689,-1.8415 1.05763,-1.37153 1.17087,-3.37041 0.26952,-4.75227"
       style="fill:#3f3e3e;fill-opacity:1;fill-rule:nonzero;stroke:none;stroke-width:0.03527778"
       id="path3722"
       inkscape:connector-curvature="0" />
  </g>
</svg>
