<?xml version="1.0" encoding="UTF-8" standalone="no"?>
<!-- Created with Inkscape (http://www.inkscape.org/) -->

<svg
   xmlns:dc="http://purl.org/dc/elements/1.1/"
   xmlns:cc="http://creativecommons.org/ns#"
   xmlns:rdf="http://www.w3.org/1999/02/22-rdf-syntax-ns#"
   xmlns:svg="http://www.w3.org/2000/svg"
   xmlns="http://www.w3.org/2000/svg"
   xmlns:sodipodi="http://sodipodi.sourceforge.net/DTD/sodipodi-0.dtd"
   xmlns:inkscape="http://www.inkscape.org/namespaces/inkscape"
   width="30.817743mm"
   height="8.2981033mm"
   viewBox="0 0 30.817743 8.2981033"
   version="1.1"
   id="svg5296"
   inkscape:version="0.92.4 (5da689c313, 2019-01-14)"
   sodipodi:docname="ornamento-3.svg">
  <defs
     id="defs5290" />
  <sodipodi:namedview
     id="base"
     pagecolor="#ffffff"
     bordercolor="#666666"
     borderopacity="1.0"
     inkscape:pageopacity="0.0"
     inkscape:pageshadow="2"
     inkscape:zoom="0.35"
     inkscape:cx="-827.47601"
     inkscape:cy="-224.3184"
     inkscape:document-units="mm"
     inkscape:current-layer="layer1"
     showgrid="false"
     inkscape:window-width="1920"
     inkscape:window-height="1017"
     inkscape:window-x="-8"
     inkscape:window-y="-8"
     inkscape:window-maximized="1" />
  <metadata
     id="metadata5293">
    <rdf:RDF>
      <cc:Work
         rdf:about="">
        <dc:format>image/svg+xml</dc:format>
        <dc:type
           rdf:resource="http://purl.org/dc/dcmitype/StillImage" />
        <dc:title></dc:title>
      </cc:Work>
    </rdf:RDF>
  </metadata>
  <g
     inkscape:label="Capa 1"
     inkscape:groupmode="layer"
     id="layer1"
     transform="translate(-159.97207,-81.184319)">
    <path
       d="m 169.16654,86.924386 c -1.65453,0.769055 -3.38385,1.389944 -5.17349,1.72473 -0.44944,0.06138 -0.89888,0.147814 -1.34796,0.189089 -0.44732,0.03493 -0.89782,0.02752 -1.30422,-0.107244 -0.40146,-0.125942 -0.7486,-0.41522 -0.91652,-0.781756 -0.17427,-0.365478 -0.0928,-0.783872 0.18839,-1.072797 0.27481,-0.29845 0.6731,-0.452261 1.09784,-0.506236 0.42369,-0.0568 0.8823,-0.03598 1.33844,-0.03281 0.91193,0.01447 1.82315,0.04621 2.73332,0.09737 1.23331,0.0702 2.46274,0.188736 3.68794,0.34043 -0.1016,0.04868 -0.20179,0.101248 -0.30374,0.149224 z m 9.94868,-4.625622 c 0.41805,-0.172861 0.84138,-0.370417 1.23402,-0.452967 0.19579,-0.04127 0.39123,-0.05186 0.56162,-0.02152 0.17533,0.03034 0.34255,0.10548 0.46003,0.210608 0.11747,0.106186 0.17991,0.236361 0.18873,0.382411 0.007,0.147461 -0.0462,0.314325 -0.1404,0.461786 -0.0984,0.148872 -0.22508,0.270581 -0.38418,0.360892 -0.16369,0.09278 -0.35207,0.156986 -0.55386,0.201083 -0.40323,0.08643 -0.86713,0.100895 -1.31939,0.132997 -0.45297,0.03563 -0.90734,0.04233 -1.36102,0.06244 -0.53304,0.01058 -1.06609,0.01199 -1.59914,0.0056 0.95991,-0.478362 1.92758,-0.936268 2.91359,-1.343373 z m 11.49915,2.737908 c -0.35666,-0.964847 -1.24143,-1.659467 -2.22321,-1.832681 -0.98495,-0.180269 -2.06481,0.228953 -2.60385,1.087261 -0.55316,0.862189 -0.27799,2.113492 0.59619,2.619023 0.89183,0.505177 2.14595,-0.151342 2.17417,-1.141236 l -0.0706,-0.0028 c -0.0847,0.917575 -1.28305,1.41605 -1.98755,0.947914 -0.72143,-0.464255 -0.88829,-1.560688 -0.41239,-2.229908 0.46954,-0.695325 1.41217,-1.012825 2.21544,-0.827264 0.81809,0.17392 1.52823,0.797631 1.79211,1.564923 0.26353,0.77223 0.0935,1.693333 -0.42792,2.303638 -0.52845,0.624414 -1.36983,0.932741 -2.22567,1.078791 -1.75083,0.267406 -3.57575,0.168981 -5.35587,-0.104069 -1.78929,-0.262819 -3.55917,-0.707319 -5.34776,-1.113014 -1.78646,-0.416278 -3.60151,-0.780344 -5.42607,-1.031522 -0.10972,-0.01552 -0.21978,-0.02716 -0.3295,-0.04198 1.07703,-0.532694 2.14066,-1.08973 3.20464,-1.641122 0.32632,-0.170391 0.65299,-0.339372 0.98037,-0.508 0.88018,0.05644 1.76318,0.07479 2.64583,0.07126 0.46143,-0.01588 0.92357,-0.01905 1.38465,-0.0508 0.46073,-0.02963 0.91687,-0.03387 1.41288,-0.132644 0.24553,-0.05151 0.49741,-0.131233 0.73413,-0.262467 0.24059,-0.132291 0.45861,-0.331964 0.60819,-0.568677 0.14993,-0.23742 0.25188,-0.523875 0.23706,-0.836789 -0.0138,-0.312914 -0.17321,-0.6223 -0.40005,-0.818445 -0.45226,-0.400402 -1.08267,-0.444852 -1.57303,-0.319969 -0.50377,0.121355 -0.91017,0.330905 -1.33421,0.513644 -1.24672,0.558095 -2.4444,1.196622 -3.62691,1.858081 -0.06,-0.0028 -0.12029,-0.0018 -0.18062,-0.0049 -3.63432,-0.152753 -7.24782,-0.836436 -10.7248,-1.982611 l -0.0243,0.06597 c 3.19723,1.313392 6.61282,2.103967 10.07322,2.405592 -1.28835,0.732719 -2.56822,1.473905 -3.87915,2.15265 -1.56421,-0.197203 -3.1369,-0.32632 -4.71134,-0.378884 -0.9204,-0.03351 -1.84115,-0.04092 -2.76084,-0.02011 -0.45791,0.01411 -0.92005,0.0056 -1.40371,0.08608 -0.47625,0.07549 -0.98107,0.280811 -1.31938,0.677686 -0.17004,0.193675 -0.29987,0.43815 -0.33867,0.705203 -0.0413,0.267405 0.013,0.540808 0.12629,0.771877 0.23037,0.463198 0.66393,0.789164 1.13806,0.924631 0.47237,0.140053 0.9578,0.126647 1.41852,0.07937 0.46285,-0.04762 0.9137,-0.1397 1.37055,-0.207433 1.81222,-0.362303 3.54647,-1.012473 5.22252,-1.760714 0.21801,-0.09807 0.4325,-0.202142 0.64876,-0.303389 0.43532,0.0568 0.8703,0.118181 1.30422,0.183797 1.80234,0.271992 3.57857,0.652286 5.35446,1.090436 1.77764,0.430036 3.5687,0.871009 5.40596,1.141236 1.83727,0.254 3.71863,0.363361 5.58977,0.02893 0.46849,-0.09419 0.93909,-0.225072 1.38536,-0.441678 0.44696,-0.210608 0.86677,-0.516466 1.19062,-0.913341 0.64876,-0.807509 0.81986,-1.92405 0.47343,-2.881489"
       style="fill:#3f3e3e;fill-opacity:1;fill-rule:nonzero;stroke:none;stroke-width:0.03527778"
       id="path3836"
       inkscape:connector-curvature="0" />
  </g>
</svg>
